# xmcd
#
# Track frame offsets: 
#        150
#        14315
#        26540
#        39725
#        54133
#        68628
#        81373
#        94695
#        107343
#        120005
#        132625
#        146565
#        159063
#        172993
#        186130
#        198405
#        209690
#        219978
#        232365
#        245265
#        257350
#        267888
#        280323
#        292753
#
# Disc length: 4091 seconds
#
# Revision: 1
# Processed by: cddbd v1.5.2PL0 Copyright (c) Steve Scherf et al.
# Submitted via: ExactAudioCopy v0.99pb4
#
DISCID=480ff918
DTITLE=Hooker, John Lee - Blues Brother
DYEAR=1900
DGENRE=
TTITLE0=boogie chillen -1948
TTITLE1=rollin' blues -1950
TTITLE2=i need lovin' -1951
TTITLE3=grinder man -1950
TTITLE4=woman in my life -1951
TTITLE5=my baby's got something -1951
TTITLE6=momma poppa boogie -1949
TTITLE7=sailing blues -1949
TTITLE8=graveyard blues -1949
TTITLE9=huckle up baby -1950
TTITLE10=alberta -1949
TTITLE11=boogie chillen #2 -1950
TTITLE12=three long years today -1950
TTITLE13=do my baby think of me? -1950
TTITLE14=burnin' hell -1949
TTITLE15=goin' on highway 51 -1950
TTITLE16=sail on little girl -1950
TTITLE17=alberta part 2 -1950
TTITLE18=21 boogie -1950
TTITLE19=find me a woman -1951
TTITLE20=hastings street boogie -1949
TTITLE21=canal street blues -1950
TTITLE22=war is over (Goodbye california) -1948
TTITLE23=henry's swing club -1948
EXTD=ACE-03.07.1992\r\ndjrolf@t-online.de\r\nhallo wie geht's - i am a
EXTD=DJ
EXTT0=
EXTT1=
EXTT2=
EXTT3=
EXTT4=
EXTT5=
EXTT6=
EXTT7=
EXTT8=
EXTT9=
EXTT10=
EXTT11=
EXTT12=
EXTT13=
EXTT14=
EXTT15=
EXTT16=
EXTT17=
EXTT18=
EXTT19=
EXTT20=
EXTT21=
EXTT22=
EXTT23=
PLAYORDER=
